# xmcd
#
# Track frame offsets:
#	150
#	12589
#	27252
#	40240
#	53957
#	67262
#	88351
#	103502
#	119268
#	132846
#	148575
#	163281
#	177885
#	193491
#	210648
#	228407
#
# Disc length: 3264 seconds
#
# Revision: 1
# Processed by: cddbd v1.5.2PL0 Copyright (c) Steve Scherf et al.
# Submitted via: audiograbber 1.83.01
#
DISCID=f40cbe10
DTITLE=Tanya Tucker - Don't Believe My Heart
DYEAR=2014
DGENRE=Country
TTITLE0=Don't Believe My Heart - Live
TTITLE1=Can I See You Tonight - Live
TTITLE2=One Love At A Time - Live
TTITLE3=If Your Heart Ain't Busy - Live
TTITLE4=Daddy and Home - Live
TTITLE5=My Arms Stay Open - Live
TTITLE6=Don't Go Out With Him - Live
TTITLE7=Here's Some Love - Live
TTITLE8=Without You - Live
TTITLE9=Soon - Live
TTITLE10=Just Another Love - Live
TTITLE11=You've Got Me To Hold Onto - Live
TTITLE12=Old Weakness - Live
TTITLE13=Spring - Live
TTITLE14=Tell Me About It - Live
TTITLE15=Little Things - Live
EXTD=
EXTT0=
EXTT1=
EXTT2=
EXTT3=
EXTT4=
EXTT5=
EXTT6=
EXTT7=
EXTT8=
EXTT9=
EXTT10=
EXTT11=
EXTT12=
EXTT13=
EXTT14=
EXTT15=
PLAYORDER=
